<?xml version="1.0" encoding="UTF-8"?>
<svg id="GodPan" xmlns="http://www.w3.org/2000/svg" viewBox="0 0 800 800">
  <defs>
    <style>
      .cls-1 {
        fill: #fff;
      }

      .cls-2 {
        fill: teal;
      }
    </style>
  </defs>
  <rect id="_圆角176px-Teal" data-name="圆角176px-Teal" class="cls-2" width="800" height="800" rx="176" ry="176"/>
  <path class="cls-1" d="M458.93,236.01c-28.15-7.76-55.87-3.32-83.52-1.47-5.73.38-9.73-.5-14.48-4.71-18.38-16.31-39.75-25.44-64.97-21.77-8.31,1.21-15.22,5.41-20.83,12.93,14.75,2.21,25.62,11.02,37.19,18.43,8.6,5.51,17.81,8.72,28.17,8.84,5.79.07,11.7.65,17.3,2.03,2.49.62,5.86,3.52,6.28,5.84,5.8,32.44,12.63,64.78,11.9,98.01-.4,17.89-2.15,35.55-9.02,52.36-2.08,5.1-5.05,8.23-10.67,9.9-14.61,4.34-28.98,9.5-44.24,14.6,4.72-23.34,9.28-45.92,13.9-68.8-17.69-5.12-20.45-19.89-22.88-34.82-1.15-7.06-1.94-14.19-3.27-21.22-.34-1.78-1.77-4.26-3.28-4.79-22.2-7.87-33.98-24.88-40.31-46.3-2.52-8.54-3.42-17.55-5.17-26.97-6.31.44-13.34.26-20.1,1.52-22.26,4.15-41.34-3.07-59-15.64-18.74-13.33-32.76-30.31-38.5-53.02-4.9-19.41-1.1-37.52,10.22-55.97,1.8,3.46,3.4,5.74,4.24,8.28,4.48,13.55,7.5,27.75,13.36,40.65,14.82,32.59,41.32,39.38,72.63,27.78,17.15-6.35,34.12-13.31,50.78-20.85,15.54-7.03,31.69-8.94,48.29-7.62,36.36,2.89,68.99,15.63,97.2,38.88,13.3,10.96,24.19,23.88,28.35,41.26.15.63.22,1.27.44,2.63ZM330.92,319c.41,6,.8,11.61,1.2,17.44,7.1-3.19,9.76-8.23,8.44-15.46-2.95-.61-5.99-1.23-9.63-1.98Z"/>
  <path class="cls-1" d="M383.29,403.07c14.72-51.54,14.6-102.14-1.42-153.05,3.74-.6,7.91-1.78,12.1-1.85,23.5-.38,46.99-.27,69.97,5.77,15.41,4.05,28.44,11.98,38.84,24.11,12,13.99,21.32,29.4,24.26,47.9,1.96,12.33,7.39,21.34,18.82,27.72,32.5,18.14,41.53,48.44,40.58,83.12-.24,8.91-1.83,17.78-2.82,26.86-5.27-1.43-7.55-4.25-9.41-8.38-7.07-15.7-18.25-28.58-29.79-41.06-6.2-6.71-13.18-12.7-19.83-19-6.53-6.19-14.7-8.58-23.31-8.86-21.11-.69-42.24-.98-63.37-1.21-2.52-.03-5.79.56-7.46,2.16-11.37,10.85-25.74,13.01-40.35,14.73-1.81.21-3.61.55-6.81,1.05ZM487.59,334.81c2.09-8.58,2.45-15.91-.63-23.12-2.52-5.91-12.5-11.18-18.04-8.2-8.32,4.48-15.86,10.4-23.5,15.55,14.12,5.28,27.76,10.38,42.17,15.77Z"/>
  <path class="cls-1" d="M489.34,585.17c-11.81-3.44-23.12-7.34-34.71-9.98-20.08-4.57-40.43-3.12-60.65-.8-9.28,1.06-18.2.62-27.14-2.02-7.2-2.13-14.5-3.79-22.08-1.46-3.11.96-4.92,2.52-5.88,5.9-2.64,9.33-7.92,17.18-15.02,23.75-1.4,1.3-3.37,1.98-5.88,3.39,0-15.46-.06-29.61.08-43.75.01-1.52.83-3.32,1.84-4.5,6.36-7.43,12.7-14.89,19.42-22,5.6-5.92,11.68-11.38,17.59-16.99,2.36-2.24,3.33-4.55,2.36-7.97-1.13-3.96-1.46-8.15-2.1-11.98,9.9-.91,19.73-1.32,29.37-2.88,5.96-.96,11.62-3.74,17.46-5.56,1.99-.62,4.2-1.41,6.17-1.11,5.9.88,12.08,1.38,17.51,3.59,18.15,7.36,37.1,8.57,56.31,9.19,10.42.34,20.88,1.6,31.15,3.44,7.56,1.36,10.6,10.63,5.79,16.87-3.1,4.02-6.89,7.8-11.09,10.63-11.97,8.07-17.51,18.94-17.27,33.36.12,7.17.47,14.67-3.24,20.89Z"/>
  <path class="cls-1" d="M353.16,583.04c10.98,1.87,21.56,4.17,32.26,5.32,7.19.77,14.56.02,21.84-.26,1.59-.06,3.55-.56,4.65-1.6,7.49-7.08,16.34-4.8,24.46-2.81,11.42,2.79,22.49,7,33.67,10.73,5.2,1.73,10.29,3.77,15.16,5.58-1.68,25.29-3.35,50.47-4.95,74.62-17.88-2.32-36.26-5.28-54.75-6.95-23.21-2.1-46.52-3.32-69.68,1.23-5.36,1.05-9.08,3.36-11.87,8.5-5.21,9.61-13.33,16.74-22.98,23.61-1.76-18.27-3.95-35.57-4.86-52.94-.38-7.28,1.36-14.86,3.29-21.99.82-3.02,4.17-6.65,7.12-7.56,13.2-4.05,19.17-14.1,23.43-25.93,1.07-2.97,2.01-5.98,3.2-9.54Z"/>
  <path class="cls-1" d="M377.81,477.14c.75-14.39,1.04-27.99,2.32-41.5.8-8.49,5.87-14.22,14.59-16.32,6.63-1.59,13.25-3.27,19.72-5.4,4.06-1.33,8.42-2.87,11.56-5.58,3.44-2.96,6.85-3.4,10.92-3.39,21.16.08,42.32.25,63.47-.09,6.62-.11,12.39,1.47,16.91,5.9,9.62,9.4,19.76,18.51,27.95,29.07,11.29,14.56,20.95,30.38,31.39,45.61,2.3,3.35,2.41,6.32-.52,9.28-.81.82-1.41,1.86-2.2,2.72-6.63,7.25-8.41,7.55-15.22.58-4.17-4.27-8.11-5.29-14.25-4.76-6.62.57-14.44-.62-20.13-3.86-14.56-8.29-29.79-10.74-46.06-9.4-.5.04-1-.03-1.5.01-18.19,1.43-35.76-1.3-52.91-7.48-2.94-1.06-6.52-1.04-9.69-.64-11.55,1.46-23.05,3.29-36.38,5.25Z"/>
  <path class="cls-1" d="M482.19,692.15c-1.84,30.49,10.07,56.75,25.33,83.4-3.47-.86-5.8-.99-7.69-1.98-9.43-4.9-18.68-10.14-28.1-15.04-9.85-5.12-19.5-10.87-29.83-14.74-11.41-4.28-23.31-2.76-34.74,1.43-1.87.69-3.86,1.23-5.53,2.27-20.4,12.73-42.96,17.3-66.62,17.78-4.83.1-8.94,1.7-12.6,5-3.45,3.11-7.34,5.73-11.05,8.56-.1.08-.32.01-1.05.01,2.35-11.57,4.68-23.05,7.02-34.51,1.57-7.66,3.23-15.3,4.71-22.98.54-2.79,1.99-4.22,4.39-5.91,6.46-4.56,12.6-9.68,18.33-15.13,5.05-4.8,9.21-10.54,14.16-15.45,1.42-1.41,4.34-2.16,6.43-1.92,9.49,1.1,18.89,2.58,27.5-3.46,1.05-.74,2.9-.43,4.38-.44,23.82-.22,47.07,3.86,70.11,9.4,4.83,1.16,9.64,2.4,14.85,3.71Z"/>
  <path class="cls-1" d="M312.13,535.41c-1.92-24.38-7.1-46.79-4.21-69.73.15-1.16.3-2.31.46-3.47,1.47-10.39,5.53-18.06,16.98-21.1,9.41-2.5,18.25-7.15,27.36-10.81,7.23-2.9,13.01.64,12.34,8.38-1.11,12.74-3.07,25.4-4.82,38.08-.15,1.1-1.11,2.55-2.08,3.02-10.57,5.15-16.96,14.18-22.73,23.88-4.08,6.87-8.07,13.81-12.64,20.34-2.67,3.82-6.4,6.91-10.67,11.39Z"/>
</svg>