<?xml version="1.0" encoding="UTF-8"?>
<svg id="_蓝底白手" data-name="蓝底白手" xmlns="http://www.w3.org/2000/svg" viewBox="0 0 2000 2000">
  <defs>
    <style>
      .cls-1 {
        fill: #002fa7;
      }

      .cls-2 {
        fill: #f5f5f5;
        fill-rule: evenodd;
      }
    </style>
  </defs>
  <rect id="BGR-440px" class="cls-1" x="0" width="2000" height="2000" rx="440" ry="440"/>
  <path id="Hand-WhiteSmoke" class="cls-2" d="M739.18,238.65c80.89-.03,97.8,116.54,118.23,180.66,2.52,13.56,5.04,27.12,7.57,40.67,7.88,7.25,15.76,14.5,23.65,21.75-1.05,9.63-6.91,10.17-10.4,17.03-2.42,8.94,3.38,22.37,7.57,28.38,6.85,1.03,8.75,1.19,11.35,6.62-3.15,3.78-6.31,7.57-9.46,11.35,8.51,28.69,17.03,57.38,25.54,86.07,1.89,16.08,3.78,32.16,5.68,48.24,7.91,37.15,16.16,76.19,25.54,114.45,5.37,21.91,4.88,70.76,16.08,86.07,13.4,18.33,45.17,6.13,57.7-3.78,27.38-21.66,19.97-67.26,29.32-107.83,9.88-42.84,18.26-95.52,26.48-140.93,1.58-16.08,3.15-32.16,4.73-48.24,8.17-39.54,23.48-110.31,16.08-158.9-9.87-64.77-2.73-175.61,70.94-156.06,55.94,14.84,61.46,84.27,71.88,145.66.63,19.86,1.26,39.73,1.89,59.59.32,20.81.63,41.62.95,62.43,8.23,51.62.21,117.25-6.62,162.69.63,9.14,1.26,18.29,1.89,27.43-2.84,26.48-5.68,52.97-8.51,79.45-8.99,47.52-20.52,110.11-8.51,161.74,6.18,26.55-10.22,51.29-4.73,75.67,11.19,49.67,47.73,88.86,71.88,127.69,8.92,14.34,21.63,23.58,23.65,46.35-11.95,8.61-22.46,31.45-11.35,46.35,12.6,2.21,25.32-8.9,38.78-11.35,15.1-2.75,22.79,11.49,36.89,4.73,21.26-10.2,33.28-29.16,50.13-43.51,62.48-53.2,120.08-144.72,196.74-179.71,57.75-26.36,145.34-42.72,174.98,19.86,11.52,24.32-2.2,51.45-16.08,62.43-15.13,11.35-30.27,22.7-45.4,34.05-17.34,16.71-34.68,33.42-52.02,50.13-20.76,16.65-43.03,36.04-59.59,56.75-36.05,45.1-73.86,91.85-104.04,141.88-15.52,25.73-19.32,59.86-39.73,80.4-33.73,25.85-67.47,51.71-101.21,77.56-50.81,40.2-92.84,89.73-146.61,127.69-68.36,48.27-196.19,45.73-254.43-8.51.87-48.4,76.52-45.53,105.93-67.15,14-10.3,27.22-37.59,29.32-58.64.85-8.5-4.44-21.66-5.68-32.16-2.27-19.3,11.54-31.07,1.89-46.35-6.14-9.71-19.31-13.84-28.38-20.81-12.16-9.35-20.72-23.09-33.1-32.16-42.15,16.99-24.89-4.96-55.8-9.46-11.03,8.68-12.78,23.69-27.43,29.32-41.24,15.85-74.66-9.6-88.91,38.78,6.48,16.64,26.09,26.71,30.27,42.56,7.63,28.94-29.07,42.25-19.86,71.88,1.87,6.03,9.07,6.82,12.3,11.35,6.94,11.66,13.87,23.33,20.81,35,3.95,13.92-3.51,27.85-4.73,35.94,1.26,12.61,2.52,25.22,3.78,37.83-2.43,11.72-32.39,42.56-48.24,40.67-11.03-3.15-22.07-6.31-33.1-9.46-11.24,7.38-28.83,26.62-50.13,18.92-11.05-4-17.23-10-35-8.51-14.13,1.18-28.62,23.43-41.62,4.73-11.63-16.73-8.5-60.88-17.03-81.34-9.46-11.98-18.92-23.96-28.38-35.94-32.51-51.96-68.4-109.63-87.96-172.14-10.06-32.14-11.34-64.05-18.92-98.37-7.92-35.88-16.54-81.49-24.59-120.12-5.14-24.64-4.79-47.86-13.24-68.1-14.04-33.63-40.5-52.94-61.48-79.45-35.69-45.09-70.23-89.08-104.99-135.26-22.8-30.28-50.84-57.66-73.78-87.96-15.76-23.01-31.53-46.03-47.29-69.05-13.13-16.76-42.82-48.58-26.48-81.34,33.86-67.91,98.55-8.61,125.8,23.65,29.37,34.77,64.23,65.93,92.69,101.21,15.45,16.71,30.9,33.42,46.35,50.13,27.48,21.98,57.4,48.34,79.45,75.67,8.56,10.61,19.9,17.52,31.21,25.54,32.39,22.96,47.65,25.27,76.61-4.73.35-21.37-13.37-36.6-19.86-52.02-11.35-29-22.7-58.01-34.05-87.02-12.34-31.34-27.24-61.61-38.78-90.8-4.1-17.34-8.2-34.68-12.3-52.02-10.09-29-20.18-58.01-30.27-87.02-9.67-36.15-18.4-70.06-30.27-104.99-16.43-48.36-50.08-148.89,13.24-170.25,38.12-12.86,68.49,9.78,81.34,32.16,15.76,49.81,31.53,99.63,47.29,149.44,29.15,81.88,71.08,154.84,100.26,235.52,13.52,37.38,15.72,83.8,35.94,115.39,5.04,7.87,21.46,26.51,34.05,14.19,7.09-6.94,3.32-28.31,0-36.89-13.07-33.78-26.04-67.74-35-104.99-13.33-55.41-23.24-110.92-35.94-169.31-.95-14.82-1.89-29.64-2.84-44.45-4.68-28.98-6.05-56.46-12.3-83.23-9.34-40.07-21.44-75.76-30.27-118.23-2.92-14.08-10.19-37.81-8.51-54.86,2.13-21.73,23.56-40.19,42.56-46.35,5.99-.63,11.98-1.26,17.97-1.89Z"/>
</svg>